#!OML:ASF G:\ViconDB\ViconDB\414\test\team2\shane.ASF
:FULLY-SPECIFIED
:DEGREES
379
root 18.9969 16.7452 -4.35338 -185.757 7.06496 -171.95
lowerback 7.03922 3.07017 5.45285
upperback 1.09537 4.60141 0.456441
thorax -2.41696 2.2878 -2.97893
lowerneck -15.7506 -3.47475 -5.39333
upperneck 24.1196 -6.7827 8.23535
head 10.8424 -3.04943 2.84137
rclavicle -9.49445e-014 4.77083e-015
rhumerus -23.3013 10.4818 -92.6183
rradius 37.6993
rwrist 33.9609
rhand -31.7351 -13.0833
rfingers 7.12502
rthumb -4.993 -43.0045
lclavicle -9.49445e-014 4.77083e-015
lhumerus -47.561 3.64082 72.7975
lradius 11.1937
lwrist -35.5764
lhand -33.8634 7.16709
lfingers 7.12502
lthumb -7.04775 37.0298
rfemur 28.1014 -11.4502 13.1112
rtibia 17.8965
rfoot -2.27452 1.73473
rtoes -31.1169
lfemur -13.4361 21.1612 -12.9071
ltibia 31.5716
lfoot -17.9286 -17.3551
ltoes -7.78667
380
root 18.9724 16.7563 -4.52043 -185.957 6.56969 -172.029
lowerback 7.08692 2.94106 5.32019
upperback 1.12885 4.42528 0.495856
thorax -2.43774 2.20235 -2.85363
lowerneck -16.1056 -3.41078 -5.66849
upperneck 24.4505 -6.65908 8.31909
head 11.0374 -2.99742 2.9372
rclavicle -6.27414e-016 1.03368e-014
rhumerus -23.9752 9.63636 -92.5728
rradius 37.473
rwrist 34.4127
rhand -31.3739 -13.053
rfingers 7.12502
rthumb -4.64415 -42.9821
lclavicle -6.27414e-016 1.03368e-014
lhumerus -46.9552 4.97083 72.4549
lradius 10.9211
lwrist -37.7518
lhand -33.7685 7.2479
lfingers 7.12502
lthumb -6.95607 37.1136
rfemur 26.2699 -11.2404 12.6119
rtibia 22.5729
rfoot -1.24104 2.78211
rtoes -29.9918
lfemur -12.4517 20.9052 -12.9893
ltibia 31.1934
lfoot -17.9834 -17.7742
ltoes -7.73095
381
root 18.943 16.7803 -4.68405 -186.184 6.25255 -172.211
lowerback 7.34471 2.86907 5.18752
upperback 1.07442 4.33407 0.44934
thorax -2.6518 2.14974 -2.83999
lowerneck -16.2921 -3.35093 -5.87563
upperneck 24.7766 -6.56924 8.36631
head 11.1972 -2.9694 3.00524
rclavicle 1.50579e-014 -3.33958e-014
rhumerus -24.8859 9.13055 -92.7445
rradius 37.4925
rwrist 33.3658
rhand -31.1748 -13.0197
rfingers 7.12502
rthumb -4.45196 -42.9529
lclavicle 1.50579e-014 -3.33958e-014
lhumerus -46.4014 3.80139 74.1658
lradius 11.3274
lwrist -36.1425
lhand -33.5551 6.74137
lfingers 7.12502
lthumb -6.75014 36.6138
rfemur 24.4491 -10.9977 11.9738
rtibia 26.963
rfoot -0.129525 3.9461
rtoes -28.6721
lfemur -11.3791 20.6485 -13.1724
ltibia 30.6612
lfoot -17.9235 -17.9092
ltoes -7.31641
382
root 18.9188 16.8005 -4.84992 -186.35 5.97272 -172.355
lowerback 7.3774 2.79819 4.96072
upperback 1.11798 4.22678 0.504397
thorax -2.6545 2.1004 -2.64923
lowerneck -16.4621 -3.2679 -6.03344
upperneck 24.8528 -6.32518 8.18554
head 11.2362 -2.88052 3.0037
rclavicle -4.04278e-014 1.19271e-014
rhumerus -25.5795 8.31046 -92.6199
rradius 36.9998
rwrist 34.3348
rhand -31.0662 -12.9645
rfingers 7.12502
rthumb -4.34707 -42.8999
lclavicle -4.04278e-014 1.19271e-014
lhumerus -45.7269 3.43428 75.3841
lradius 11.5435
lwrist -35.9853
lhand -33.4375 6.57098
lfingers 7.12502
lthumb -6.63661 36.447
rfemur 22.6071 -10.5975 11.5782
rtibia 31.1327
rfoot 1.20247 5.10037
rtoes -25.9063
lfemur -10.3379 20.6102 -13.318
ltibia 30.1009
lfoot -18.0152 -18.0935
ltoes -6.92133
383
root 18.8957 16.8177 -5.00436 -186.616 5.53088 -172.698
lowerback 7.64176 2.70632 4.55602
upperback 1.14796 4.0855 0.446975
thorax -2.80584 2.03056 -2.4872
lowerneck -16.4917 -3.21331 -6.16532
upperneck 24.7421 -6.13583 8.08811
head 11.1844 -2.80694 3.01916
rclavicle -9.88457e-014 -7.95139e-015
rhumerus -26.3192 7.71806 -92.6521
rradius 36.7734
rwrist 34.1009
rhand -30.9431 -13.0952
rfingers 7.12502
rthumb -4.22818 -43.0329
lclavicle -9.88457e-014 -7.95139e-015
lhumerus -45.0216 1.90102 77.3351
lradius 11.9677
lwrist -34.293
lhand -33.6435 6.03083
lfingers 7.12502
lthumb -6.83539 35.9005
rfemur 20.8819 -10.4736 10.8479
rtibia 35.1061
rfoot 2.54076 6.33526
rtoes -23.0717
lfemur -9.19607 20.3707 -13.6286
ltibia 29.4718
lfoot -18.0367 -18.3361
ltoes -6.46087
384
root 18.8726 16.836 -5.15453 -186.822 5.13308 -172.886
lowerback 7.87721 2.58902 4.40733
upperback 1.2038 3.92797 0.346558
thorax -2.89354 1.95327 -2.50622
lowerneck -16.5514 -3.11299 -6.05352
upperneck 24.486 -5.90383 7.92895
head 11.0714 -2.69273 2.97477
rclavicle 3.50731e-014 -1.82882e-014
rhumerus -26.9397 7.10421 -92.7389
rradius 36.4674
rwrist 34.1616
rhand -30.8002 -13.1817
rfingers 7.12502
rthumb -4.09018 -43.1222
lclavicle 3.50731e-014 -1.82882e-014
lhumerus -44.2075 0.217232 79.309
lradius 12.579
lwrist -32.6381
lhand -33.5288 6.93557
lfingers 7.12502
lthumb -6.72474 36.8088
rfemur 19.1669 -10.2107 10.4541
rtibia 38.8277
rfoot 3.46545 7.05555
rtoes -19.6962
lfemur -8.12987 20.7431 -13.7444
ltibia 28.861
lfoot -18.1259 -19.0576
ltoes -6.14548
385
root 18.8555 16.8454 -5.29926 -187.138 4.77334 -173.292
lowerback 8.28552 2.45667 3.83952
upperback 1.2648 3.72432 0.293809
thorax -3.10496 1.8554 -2.24683
lowerneck -16.5831 -2.92104 -5.88041
upperneck 24.12 -5.46726 7.54058
head 10.8873 -2.5002 2.8664
rclavicle -3.10353e-014 2.46493e-014
rhumerus -27.5679 6.77864 -92.8109
rradius 36.13
rwrist 34.2305
rhand -30.5456 -13.2813
rfingers 7.12502
rthumb -3.84435 -43.2264
lclavicle -3.10353e-014 2.46493e-014
lhumerus -43.6081 -0.917295 80.7946
lradius 13.2604
lwrist -31.6762
lhand -33.3901 6.45811
lfingers 7.12502
lthumb -6.59081 36.3355
rfemur 17.6006 -9.88899 9.82547
rtibia 42.2678
rfoot 3.12861 7.20957
rtoes -18.0267
lfemur -6.97171 21.0235 -14.0035
ltibia 28.2254
lfoot -18.0626 -19.7114
ltoes -5.77237
386
root 18.8387 16.8535 -5.44598 -187.45 4.22282 -173.663
lowerback 8.511 2.32362 3.22092
upperback 1.40277 3.50743 0.297655
thorax -3.13851 1.75903 -1.88415
lowerneck -16.6725 -2.90245 -5.84905
upperneck 24.0458 -5.2766 7.0923
head 10.8475 -2.44705 2.72618
rclavicle -9.49197e-015 -1.03368e-014
rhumerus -28.2017 6.64348 -92.6848
rradius 35.8187
rwrist 34.4274
rhand -30.3097 -13.0339
rfingers 7.12502
rthumb -3.61651 -42.983
lclavicle -9.49197e-015 -1.03368e-014
lhumerus -42.679 -2.02228 82.357
lradius 13.7748
lwrist -30.3804
lhand -33.7121 6.35162
lfingers 7.12502
lthumb -6.90169 36.2191
rfemur 16.189 -9.80805 9.16404
rtibia 45.3926
rfoot 2.05581 7.1506
rtoes -17.2839
lfemur -5.82319 21.1947 -14.2466
ltibia 27.6174
lfoot -18.1989 -20.4526
ltoes -5.57418
387
root 18.8272 16.865 -5.59182 -187.729 3.34893 -173.939
lowerback 8.66227 2.07275 2.79199
upperback 1.57165 3.14556 0.228252
thorax -3.08597 1.59084 -1.68121
lowerneck -16.4694 -2.77703 -5.74541
upperneck 23.3007 -4.93335 6.85927
head 10.4993 -2.28402 2.67138
rclavicle -6.88603e-014 -2.06736e-014
rhumerus -28.7123 6.33475 -92.6878
rradius 35.4871
rwrist 34.5492
rhand -30.1497 -13.0027
rfingers 7.12502
rthumb -3.46205 -42.9544
lclavicle -6.88603e-014 -2.06736e-014
lhumerus -41.9205 -3.59809 83.9546
lradius 14.6824
lwrist -29.0346
lhand -33.63 6.78386
lfingers 7.12502
lthumb -6.82241 36.6539
rfemur 14.8685 -9.97326 8.70116
rtibia 48.167
rfoot 0.540665 6.5455
rtoes -16.739
lfemur -4.74327 21.3694 -14.3713
ltibia 26.9872
lfoot -18.3094 -21.5425
ltoes -5.42061
388
root 18.8067 16.8733 -5.73463 -188.106 2.68248 -174.115
lowerback 9.11437 1.84044 2.51178
upperback 1.6591 2.83473 0.220854
thorax -3.27432 1.44179 -1.51634
lowerneck -16.2794 -2.64244 -5.998
upperneck 22.9434 -4.64134 6.93299
head 10.319 -2.15634 2.78135
rclavicle -1.01256e-014 -2.3059e-014
rhumerus -29.368 6.29116 -92.6845
rradius 35.1953
rwrist 34.1391
rhand -30.0437 -12.7799
rfingers 7.12502
rthumb -3.35963 -42.7332
lclavicle -1.01256e-014 -2.3059e-014
lhumerus -41.0937 -4.54812 85.0883
lradius 15.3391
lwrist -28.0097
lhand -34.1341 6.88987
lfingers 7.12502
lthumb -7.30903 36.7436
rfemur 13.6216 -10.0439 8.32626
rtibia 50.6339
rfoot -0.854481 6.16881
rtoes -17.0255
lfemur -3.50896 21.309 -14.4013
ltibia 26.3563
lfoot -18.4916 -22.1496
ltoes -5.40906
389
root 18.7881 16.8836 -5.88236 -188.403 1.43467 -174.099
lowerback 9.14317 1.4393 2.18523
upperback 1.88918 2.29468 0.436172
thorax -3.09639 1.19014 -1.0459
lowerneck -16.3091 -2.62154 -6.39353
upperneck 22.7289 -4.38434 6.7154
head 10.2317 -2.07992 2.80633
rclavicle -2.87306e-014 -1.59028e-014
rhumerus -29.8421 6.10575 -92.2266
rradius 34.7075
rwrist 35.2873
rhand -29.7966 -12.6546
rfingers 7.12502
rthumb -3.12108 -42.6115
lclavicle -2.87306e-014 -1.59028e-014
lhumerus -40.2204 -6.54206 87.1597
lradius 16.1498
lwrist -26.2826
lhand -34.3842 6.66589
lfingers 7.12502
lthumb -7.55044 36.5111
rfemur 12.5162 -10.6257 8.12902
rtibia 52.7685
rfoot -2.04537 5.79882
rtoes -17.5419
lfemur -2.39776 20.8262 -14.3263
ltibia 25.6807
lfoot -18.6841 -23.0192
ltoes -5.23778
390
root 18.7672 16.8902 -6.02391 -188.604 0.955791 -174.175
lowerback 9.25372 1.31279 1.94372
upperback 2.01472 2.11929 0.513095
thorax -3.04492 1.11182 -0.812378
lowerneck -16.2508 -2.53792 -6.56124
upperneck 22.4825 -4.13422 6.56273
head 10.1133 -1.98477 2.81412
rclavicle -1.67725e-015 -3.97569e-015
rhumerus -30.4284 5.62704 -91.897
rradius 34.3516
rwrist 35.6984
rhand -29.7457 -12.01
rfingers 7.12502
rthumb -3.07191 -41.9676
lclavicle -1.67725e-015 -3.97569e-015
lhumerus -39.303 -7.79616 88.3663
lradius 16.9241
lwrist -25.1032
lhand -34.911 6.76848
lfingers 7.12502
lthumb -8.05887 36.5948
rfemur 11.0979 -10.5531 7.94127
rtibia 54.6094
rfoot -2.82004 5.48575
rtoes -16.4999
lfemur -1.33195 20.317 -14.3998
ltibia 25.0235
lfoot -18.941 -22.9205
ltoes -5.39051
391
root 18.7471 16.9034 -6.16833 -188.759 0.19617 -174.12
lowerback 9.19141 1.34012 1.83016
upperback 2.18617 1.79616 0.665393
thorax -2.84493 0.805418 -0.541898
lowerneck -16.1935 -2.53777 -6.87429
upperneck 22.2021 -3.98674 6.50926
head 9.99677 -1.93652 2.86703
rclavicle -6.60648e-015 -1.03368e-014
rhumerus -31.0985 5.26888 -91.5321
rradius 34.1931
rwrist 36.1929
rhand -29.5202 -11.967
rfingers 7.12502
rthumb -2.85409 -41.9276
lclavicle -6.60648e-015 -1.03368e-014
lhumerus -37.972 -8.37633 89.0409
lradius 17.1647
lwrist -25.7553
lhand -35.6112 6.72764
lfingers 7.12502
lthumb -8.73462 36.5269
rfemur 9.74406 -10.5717 8.03289
rtibia 56.1422
rfoot -3.72631 5.0353
rtoes -16.1918
lfemur -0.346543 19.6814 -14.3648
ltibia 24.3568
lfoot -19.1023 -23.1221
ltoes -5.43446
392
root 18.7243 16.9132 -6.30844 -188.973 -0.766408 -174.016
lowerback 9.17798 1.09423 1.76382
upperback 2.38989 1.44709 0.824789
thorax -2.63975 0.627756 -0.297741
lowerneck -16.2552 -2.5367 -7.07691
upperneck 22.0422 -3.8169 6.24368
head 9.93791 -1.89069 2.82954
rclavicle -1.34956e-014 -1.98785e-014
rhumerus -31.6854 4.83886 -91.0449
rradius 33.9191
rwrist 36.5215
rhand -29.4738 -11.6304
rfingers 7.12502
rthumb -2.80929 -41.5917
lclavicle -1.34956e-014 -1.98785e-014
lhumerus -36.6455 -9.36654 89.9873
lradius 17.515
lwrist -26.0423
lhand -36.3984 7.14469
lfingers 7.12502
lthumb -9.49423 36.9108
rfemur 8.53608 -10.716 8.17299
rtibia 57.3552
rfoot -4.35983 4.76133
rtoes -15.0271
lfemur 0.604402 18.8011 -14.3219
ltibia 23.7681
lfoot -19.1883 -23.299
ltoes -5.32111
393
root 18.7005 16.9152 -6.4467 -189.222 -1.68604 -173.902
lowerback 9.22865 0.876766 1.64964
upperback 2.56262 1.13403 1.01419
thorax -2.50041 0.466721 -0.00211108
lowerneck -16.2724 -2.55396 -7.54557
upperneck 22.0487 -3.71979 6.30386
head 9.9468 -1.87484 2.94395
rclavicle -8.64092e-015 -4.77083e-015
rhumerus -32.4837 4.32127 -90.5357
rradius 33.8212
rwrist 36.5624
rhand -29.3223 -11.6293
rfingers 7.12502
rthumb -2.66299 -41.5924
lclavicle -8.64092e-015 -4.77083e-015
lhumerus -35.3371 -10.4908 90.8947
lradius 17.9667
lwrist -25.5777
lhand -36.4922 6.72391
lfingers 7.12502
lthumb -9.58472 36.4859
rfemur 7.34921 -11.0369 8.2415
rtibia 58.3061
rfoot -4.96349 4.61571
rtoes -14.805
lfemur 1.60822 18.0889 -14.2623
ltibia 23.2055
lfoot -19.4769 -23.47
ltoes -5.40021
